<svg width="219" height="130" viewBox="0 0 219 130" fill="none" xmlns="http://www.w3.org/2000/svg">
<path d="M216.513 36.2906C220.588 51.4958 212.725 68.5991 196.192 84.0126C179.694 99.3923 154.754 112.885 125.273 120.784C95.7916 128.684 67.4467 129.469 45.4697 124.398C23.4444 119.317 8.0839 108.436 4.00969 93.2308C-0.0645218 78.0257 7.79768 60.9224 24.3313 45.5088C40.8286 30.1291 65.7686 16.6365 95.25 8.73701C124.731 0.837486 153.076 0.0523732 175.053 5.12295C197.079 10.2047 212.439 21.0855 216.513 36.2906Z" fill="#EBE3FF" fill-opacity="0.19" stroke="#D9FF5A" stroke-width="2"/>
<path d="M61.2955 102.273L62.5161 106.829L60.3775 107.402L57.1164 95.231C57.7191 95.0695 58.3725 94.8882 59.0764 94.6872C59.7804 94.4861 60.3584 94.325 60.8104 94.2039C63.7546 93.415 65.5621 94.2724 66.2329 96.7761C66.4814 97.7034 66.4488 98.5321 66.135 99.2622C65.8151 99.9691 65.3759 100.509 64.8175 100.882L69.9576 104.835L67.3669 105.529L62.7907 101.873L61.2955 102.273ZM61.2419 96.2313C61.1839 96.2469 61.0927 96.2775 60.9683 96.3233C60.8408 96.3574 60.6627 96.4114 60.434 96.4851C60.2022 96.5472 59.9877 96.6046 59.7907 96.6574L60.7597 100.274L62.1507 99.9012C62.8345 99.7179 63.3459 99.4008 63.6847 98.9497C64.0351 98.4956 64.1326 97.9787 63.9773 97.3991C63.6605 96.2168 62.7487 95.8276 61.2419 96.2313ZM76.0851 100.845L77.0362 102.099C76.4335 102.957 75.5236 103.548 74.3066 103.874C73.0547 104.21 71.9338 104.106 70.9437 103.564C69.9799 103.027 69.3319 102.139 68.9995 100.899C68.689 99.7394 68.8048 98.6648 69.347 97.6748C69.8892 96.6847 70.7863 96.0219 72.0381 95.6865C73.0697 95.4101 74.0365 95.5175 74.9383 96.0088C75.8402 96.5002 76.4325 97.2732 76.7151 98.328C76.8394 98.7916 76.8951 99.1618 76.8823 99.4386L71.2316 100.953C71.4649 101.499 71.8337 101.878 72.338 102.091C72.8538 102.301 73.4305 102.32 74.068 102.149C74.9373 101.916 75.6097 101.482 76.0851 100.845ZM72.3984 97.3789C71.2625 97.6833 70.7308 98.4345 70.8033 99.6325L74.6458 98.603C74.5238 98.1014 74.2528 97.7392 73.8328 97.5163C73.4213 97.2787 72.9432 97.2329 72.3984 97.3789ZM87.8914 103.756L85.892 104.292L84.8531 100.415C84.3559 100.97 83.7654 101.34 83.0815 101.523C81.8413 101.855 80.7509 101.75 79.8103 101.207C78.8781 100.649 78.2459 99.7503 77.9136 98.51C77.5999 97.3393 77.7621 96.2523 78.4002 95.249C79.0467 94.2309 80.0133 93.5496 81.2999 93.2048C82.6445 92.8445 83.899 92.8438 85.0636 93.2026L87.8914 103.756ZM82.8439 99.5929C83.5161 99.4127 84.0088 99.026 84.322 98.4328L83.4182 95.0598C82.8282 94.9445 82.2841 94.9537 81.7856 95.0872C81.067 95.2798 80.558 95.6522 80.2588 96.2045C79.9564 96.7452 79.8953 97.3516 80.0754 98.0239C80.2432 98.6498 80.5784 99.1129 81.0812 99.4129C81.5956 99.7099 82.1832 99.7699 82.8439 99.5929ZM92.1412 90.5049L94.1407 89.9691L96.2371 97.7931L94.2376 98.3289L93.9814 97.3726C93.5605 98.3053 92.8284 98.9115 91.7852 99.191C90.9506 99.4146 90.2096 99.315 89.5621 98.8922C88.9146 98.4694 88.4511 97.7364 88.1716 96.6932L86.8904 91.9118L88.8899 91.3761L90.0592 95.7401C90.3791 96.934 91.0375 97.3974 92.0343 97.1303C92.7182 96.947 93.2182 96.4714 93.5342 95.7035L92.1412 90.5049ZM104.016 93.3608L104.967 94.6154C104.364 95.4726 103.454 96.0642 102.237 96.3904C100.985 96.7258 99.8645 96.6224 98.8744 96.0802C97.9106 95.5433 97.2626 94.6548 96.9303 93.4145C96.6197 92.2554 96.7355 91.1808 97.2777 90.1907C97.82 89.2007 98.717 88.5379 99.9688 88.2025C101 87.9261 101.967 88.0335 102.869 88.5248C103.771 89.0161 104.363 89.7892 104.646 90.844C104.77 91.3076 104.826 91.6778 104.813 91.9546L99.1623 93.4687C99.3957 94.0149 99.7644 94.3944 100.269 94.6071C100.785 94.8167 101.361 94.8362 101.999 94.6653C102.868 94.4324 103.54 93.9976 104.016 93.3608ZM100.329 89.8949C99.1932 90.1993 98.6615 90.9505 98.7341 92.1485L102.577 91.1189C102.455 90.6174 102.184 90.2552 101.764 90.0323C101.352 89.7947 100.874 89.7489 100.329 89.8949ZM105.66 89.2305C105.464 88.5003 105.576 87.8493 105.994 87.2775C106.412 86.7058 107.044 86.3066 107.891 86.0798C109.166 85.7382 110.245 85.803 111.129 86.2742L110.764 87.9003C109.993 87.5727 109.219 87.5129 108.442 87.721C108.164 87.7956 107.951 87.9272 107.803 88.116C107.651 88.2932 107.601 88.4745 107.65 88.66C107.753 89.0425 108.331 89.2292 109.384 89.2203C109.765 89.2051 110.109 89.2124 110.415 89.2422C110.718 89.2604 111.039 89.3234 111.379 89.4312C111.727 89.5243 112.021 89.694 112.261 89.9403C112.501 90.1866 112.672 90.501 112.774 90.8835C112.979 91.6485 112.853 92.3347 112.394 92.9421C111.947 93.5463 111.243 93.9773 110.281 94.2351C109.597 94.4183 108.892 94.452 108.165 94.3362C107.423 94.2119 106.92 94.0239 106.653 93.7722L107.278 92.2073C107.569 92.4149 107.995 92.5431 108.555 92.5919C109.129 92.6492 109.602 92.6281 109.973 92.5287C110.437 92.454 110.717 92.2237 110.812 91.8378C110.905 91.4404 110.707 91.189 110.219 91.0837C110.02 91.0376 109.722 91.012 109.323 91.0071C108.935 90.9991 108.571 90.9848 108.23 90.9643C107.898 90.9292 107.546 90.8681 107.175 90.7812C106.816 90.6912 106.503 90.5204 106.236 90.2687C105.967 90.0055 105.775 89.6594 105.66 89.2305ZM114.185 89.7973L112.303 82.7731L114.303 82.2374L114.885 84.4107L117.406 83.7352L117.909 85.6129L115.388 86.2885L116.152 89.1399C116.404 90.0787 116.842 90.4643 117.468 90.2966C117.863 90.191 118.222 89.9332 118.547 89.5231L119.57 90.9075C119.069 91.5883 118.367 92.0498 117.463 92.2921C116.617 92.5188 115.928 92.43 115.397 92.0256C114.875 91.6065 114.471 90.8637 114.185 89.7973ZM126.3 89.7378L126.144 89.7797L122.882 77.6091L123.074 77.5578C123.572 77.4243 124.034 77.2942 124.46 77.1677C125.311 76.9147 125.818 76.7665 125.981 76.723C127.151 76.4093 128.226 76.2951 129.206 76.3805C130.194 76.4513 131.031 76.6992 131.716 77.1243C132.398 77.5378 132.962 78.0639 133.406 78.7026C133.859 79.3266 134.194 80.0443 134.412 80.8557C134.902 82.6871 134.697 84.357 133.797 85.8654C132.909 87.3707 131.351 88.4215 129.126 89.0178C128.628 89.1514 128.168 89.2683 127.748 89.3685C127.327 89.4687 126.845 89.5918 126.3 89.7378ZM126.188 77.6364C125.933 77.7047 125.56 77.8173 125.067 77.974C124.584 78.116 124.255 78.2103 124.081 78.2569L126.858 88.6194C127.24 88.5169 127.601 88.4264 127.94 88.3479C128.276 88.2579 128.521 88.1984 128.675 88.1696C128.826 88.1293 128.907 88.1075 128.918 88.1044C130.808 87.5982 132.135 86.7084 132.899 85.4352C133.661 84.1503 133.829 82.7139 133.403 81.1259C133.002 79.6307 132.184 78.5456 130.947 77.8707C129.699 77.1989 128.112 77.1208 126.188 77.6364ZM144.069 83.2064L144.551 83.8227C144.042 84.7539 143.18 85.3826 141.962 85.7088C140.711 86.0442 139.609 85.9419 138.656 85.402C137.693 84.8651 137.046 83.9824 136.717 82.7537C136.4 81.5714 136.487 80.5046 136.977 79.5532C137.48 78.5988 138.351 77.9554 139.591 77.623C140.599 77.3528 141.532 77.4507 142.39 77.9165C143.233 78.3739 143.798 79.1358 144.084 80.2022C144.158 80.4803 144.206 80.7284 144.227 80.9464L137.777 82.6748C138.063 83.6043 138.569 84.2638 139.294 84.6533C140.017 85.0312 140.847 85.0944 141.786 84.8428C142.876 84.5509 143.637 84.0054 144.069 83.2064ZM139.732 78.4983C138.898 78.7219 138.285 79.147 137.894 79.7736C137.514 80.3971 137.391 81.1196 137.524 81.9411L143.157 80.4317C142.925 79.6118 142.502 79.0295 141.888 78.6847C141.274 78.3399 140.555 78.2778 139.732 78.4983ZM150.941 80.9364C150.844 80.5771 150.616 80.3277 150.256 80.1882C149.907 80.0456 149.501 79.968 149.038 79.9554C148.587 79.9398 148.126 79.914 147.657 79.8783C147.185 79.8309 146.753 79.6795 146.361 79.4241C145.978 79.154 145.717 78.7582 145.577 78.2366C145.409 77.6107 145.508 77.0501 145.872 76.555C146.233 76.0483 146.79 75.6939 147.544 75.4921C148.622 75.2032 149.517 75.274 150.228 75.7045L150.027 76.4851C149.361 76.1295 148.61 76.0636 147.776 76.2872C147.312 76.4114 146.962 76.6356 146.726 76.9598C146.498 77.2693 146.432 77.6037 146.529 77.963C146.628 78.3339 146.855 78.6022 147.21 78.768C147.574 78.9191 147.983 79.0083 148.437 79.0355C148.9 79.0481 149.367 79.0723 149.836 79.1081C150.305 79.1438 150.728 79.2852 151.105 79.5321C151.493 79.7759 151.754 80.147 151.888 80.6454C152.077 81.3525 151.958 81.9745 151.53 82.5114C151.114 83.0453 150.495 83.4225 149.672 83.643C149.162 83.7797 148.598 83.8066 147.979 83.7239C147.399 83.6434 146.969 83.4789 146.692 83.2303L147.037 82.5041C147.329 82.7117 147.718 82.8434 148.205 82.8992C148.704 82.9519 149.156 82.924 149.562 82.8153C150.072 82.6786 150.457 82.4451 150.716 82.1147C150.984 81.7696 151.059 81.3769 150.941 80.9364ZM156.045 81.7676L155.141 82.0098L153.045 74.1858L153.949 73.9436L156.045 81.7676ZM152.073 71.1851C152.026 71.0112 152.053 70.8551 152.152 70.7166C152.252 70.5781 152.389 70.4856 152.562 70.439C152.713 70.3986 152.862 70.4208 153.009 70.5057C153.164 70.5758 153.264 70.6921 153.307 70.8543C153.36 71.0514 153.344 71.2234 153.259 71.3704C153.186 71.5142 153.062 71.6095 152.889 71.656C152.703 71.7057 152.531 71.6897 152.373 71.608C152.226 71.5231 152.126 71.3822 152.073 71.1851ZM158.417 82.3619C158.259 81.7708 158.334 81.2165 158.642 80.699C158.951 80.1815 159.466 79.7391 160.188 79.3718C159.958 79.2098 159.804 78.9838 159.726 78.6941C159.649 78.4043 159.677 78.1171 159.812 77.8325C159.243 77.7489 158.755 77.5257 158.347 77.1629C157.939 76.8001 157.661 76.3405 157.512 75.7841C157.298 74.9843 157.405 74.2475 157.833 73.5737C158.261 72.9 158.939 72.4388 159.866 72.1904C160.608 71.9916 161.315 72.0132 161.989 72.2551L162.006 72.2504L164.074 71.0629L164.302 71.9149L162.827 72.7387C163.267 73.1301 163.559 73.5924 163.702 74.1256C163.91 74.9022 163.797 75.6405 163.363 76.3406C162.924 77.0175 162.252 77.4771 161.347 77.7193C161.023 77.8063 160.756 77.853 160.546 77.8594C160.482 78.0381 160.482 78.2433 160.544 78.4751C160.615 78.7417 160.746 78.9302 160.937 79.0405C161.372 78.8993 161.612 78.8224 161.658 78.81C162.852 78.4901 163.862 78.4557 164.687 78.7067C165.512 78.9577 166.03 79.4773 166.241 80.2655C166.449 81.0421 166.257 81.7396 165.665 82.3579C165.076 82.9878 164.185 83.4627 162.991 83.7826C161.785 84.1056 160.772 84.1474 159.95 83.908C159.139 83.6655 158.628 83.1501 158.417 82.3619ZM159.339 82.115C159.475 82.625 159.849 82.9535 160.46 83.1004C161.085 83.2558 161.856 83.2108 162.772 82.9654C163.676 82.7232 164.36 82.3784 164.824 81.931C165.288 81.4837 165.453 81.0108 165.32 80.5124C165.183 80.0024 164.802 79.6697 164.176 79.5143C163.559 79.3442 162.793 79.3818 161.877 79.6272C160.973 79.8695 160.289 80.2143 159.825 80.6616C159.361 81.1089 159.199 81.5934 159.339 82.115ZM158.669 73.9832C158.363 74.4628 158.284 74.9808 158.433 75.5372C158.582 76.0936 158.91 76.5029 159.415 76.7651C159.92 77.0273 160.491 77.073 161.128 76.9022C161.766 76.7313 162.238 76.4061 162.544 75.9265C162.851 75.4469 162.929 74.9289 162.78 74.3725C162.631 73.8161 162.298 73.4084 161.781 73.1493C161.276 72.8871 160.711 72.8398 160.085 73.0075C159.471 73.1721 158.999 73.4974 158.669 73.9832ZM168.667 78.3855L167.763 78.6277L165.667 70.8037L166.571 70.5615L166.865 71.6568C167.093 71.2105 167.431 70.8031 167.879 70.4347C168.338 70.0631 168.829 69.8074 169.35 69.6676C170.44 69.3757 171.333 69.4407 172.03 69.8627C172.727 70.2847 173.236 71.0926 173.556 72.2865L174.753 76.7549L173.849 76.9971L172.698 72.7026C172.195 70.8249 171.086 70.1158 169.37 70.5755C168.872 70.709 168.416 70.9554 168.003 71.3146C167.587 71.6621 167.28 72.0486 167.084 72.474L168.667 78.3855Z" fill="white"/>
<rect x="86.0859" y="57.5098" width="30" height="30" rx="3" transform="rotate(-60 86.0859 57.5098)" fill="white"/>
<circle cx="106.576" cy="52.0195" r="13" transform="rotate(-15 106.576 52.0195)" fill="#BAA5EC"/>
<rect x="96.7773" y="46.3623" width="16" height="16" rx="3" transform="rotate(-15 96.7773 46.3623)" fill="white"/>
<circle cx="106.575" cy="52.019" r="6" transform="rotate(-15 106.575 52.019)" fill="#BAA5EC"/>
<rect width="4.24261" height="4.24261" rx="1" transform="matrix(0.5 -0.866025 0.865989 0.500063 103.678 52.7959)" fill="white"/>
</svg>
