<svg width="389" height="462" viewBox="0 0 389 462" fill="none" xmlns="http://www.w3.org/2000/svg">
<path d="M194.419 0C262.452 0 322.303 45.1296 356.934 113.424C363.212 125.806 358.354 140.337 348.764 150.375C330.526 169.466 322.328 191.972 331.411 211.451C338.403 226.446 355.856 234.706 375.753 236.936C382.642 237.708 388.419 243.069 388.419 250V250C388.419 334.765 355.683 409.676 305.614 454.885C290.442 468.584 267.951 458.012 257.015 440.742C242.447 417.735 220.045 403 194.919 403C169.612 403 147.067 417.948 132.507 441.241C121.684 458.556 99.2781 469.226 84.0481 455.625C33.5146 410.496 0.418945 335.229 0.418945 250C0.418945 111.929 87.2757 0 194.419 0Z" fill="#CBB6FF"/>
<path d="M102.919 416.64L104.155 417.605L99.2294 423.909L97.8425 422.826L101.123 418.627L94.6274 420.314L93.3918 419.349L98.3171 413.045L99.704 414.128L96.4238 418.327L102.919 416.64Z" fill="white"/>
<path d="M93.0362 408.145C93.6681 408.735 94.0801 409.403 94.2723 410.151C94.4572 410.907 94.3317 411.636 93.8958 412.338L92.5735 411.105C92.8675 410.445 92.6907 409.814 92.0432 409.21C91.6771 408.883 91.3313 408.707 91.0059 408.68C90.6726 408.647 90.3932 408.751 90.1677 408.993C89.9349 409.242 89.8464 409.517 89.9022 409.817C89.9507 410.125 90.1387 410.431 90.4664 410.737L91.1568 411.381L90.2729 412.329L89.6059 411.707C89.3329 411.452 89.0638 411.31 88.7986 411.282C88.5262 411.261 88.2809 411.368 88.0627 411.602C87.8517 411.828 87.7738 412.084 87.8291 412.369C87.877 412.661 88.0492 412.946 88.3457 413.222C88.9307 413.768 89.5193 413.872 90.1112 413.534L91.3984 414.734C90.7358 415.21 90.0476 415.385 89.3338 415.259C88.6121 415.126 87.9549 414.783 87.362 414.23C86.6677 413.583 86.2861 412.921 86.2172 412.244C86.141 411.575 86.3175 411.01 86.7467 410.55C87.2559 410.004 87.8485 409.791 88.5243 409.91C88.2157 409.068 88.3596 408.327 88.9561 407.688C89.4072 407.204 90.0145 406.983 90.7782 407.024C91.5269 407.066 92.2795 407.44 93.0362 408.145Z" fill="white"/>
<path d="M87.4057 403.51L81.651 409.067L78.0054 405.292L79.1333 404.202L81.5563 406.712L86.1831 402.243L87.4057 403.51Z" fill="white"/>
<path d="M77.7308 393.599C78.8594 393.678 79.8121 394.165 80.5889 395.058C81.3657 395.952 81.7181 396.967 81.6462 398.104C81.5592 399.239 81.077 400.188 80.1995 400.951C79.322 401.714 78.319 402.056 77.1904 401.977C76.0467 401.897 75.0865 401.41 74.3097 400.517C73.5329 399.623 73.188 398.608 73.275 397.473C73.3469 396.336 73.8216 395.386 74.6991 394.624C75.5766 393.861 76.5872 393.519 77.7308 393.599ZM79.3572 396.129C78.9024 395.606 78.3468 395.332 77.6907 395.309C77.0194 395.285 76.4141 395.507 75.8748 395.976C75.3354 396.445 75.035 397.01 74.9737 397.671C74.8973 398.331 75.0865 398.923 75.5414 399.446C76.0033 399.977 76.5698 400.255 77.241 400.279C77.8972 400.302 78.495 400.08 79.0344 399.611C79.5737 399.142 79.8816 398.577 79.958 397.917C80.0193 397.256 79.8191 396.66 79.3572 396.129Z" fill="white"/>
<path d="M74.3385 389.125L69.27 393.085L70.7476 394.976L69.512 395.941L65.4043 390.684L66.6399 389.718L68.1865 391.698L73.2549 387.738L74.3385 389.125Z" fill="white"/>
<path d="M65.0141 377.92C66.1282 378.116 67.0249 378.7 67.704 379.669C68.3831 380.639 68.6275 381.686 68.4372 382.809C68.232 383.929 67.6532 384.822 66.7008 385.489C65.7484 386.156 64.7151 386.391 63.6009 386.195C62.4718 385.996 61.5678 385.411 60.8887 384.442C60.2095 383.472 59.9726 382.427 60.1778 381.306C60.3681 380.183 60.9395 379.288 61.8919 378.622C62.8443 377.955 63.885 377.721 65.0141 377.92ZM66.3671 380.605C65.9695 380.038 65.4455 379.708 64.7954 379.616C64.1304 379.522 63.5052 379.68 62.9197 380.09C62.3343 380.499 61.9766 381.03 61.8464 381.681C61.7015 382.329 61.8278 382.938 62.2255 383.505C62.6293 384.082 63.1637 384.418 63.8287 384.512C64.4789 384.604 65.0967 384.444 65.6821 384.035C66.2675 383.625 66.6327 383.095 66.7777 382.447C66.9078 381.796 66.7709 381.182 66.3671 380.605Z" fill="white"/>
<path d="M64.1345 374.322L57.2771 378.442L55.3983 375.315C54.9258 374.529 54.7507 373.813 54.8728 373.167C54.995 372.521 55.3349 372.031 55.8926 371.696C56.3772 371.405 56.9059 371.342 57.4785 371.508C57.4341 370.627 57.773 369.969 58.4953 369.535C59.0713 369.189 59.6795 369.103 60.3199 369.278C60.9511 369.459 61.5167 369.965 62.0166 370.797L64.1345 374.322ZM61.9525 373.58L60.7494 371.578C60.5681 371.276 60.3521 371.082 60.1015 370.996C59.8361 370.907 59.5709 370.942 59.3058 371.101C59.0315 371.266 58.8761 371.484 58.8397 371.754C58.7887 372.021 58.8538 372.306 59.0351 372.608L60.2382 374.61L61.9525 373.58ZM59.141 375.269L58.1357 373.596C57.9873 373.349 57.8043 373.179 57.5866 373.086C57.3542 372.989 57.1008 373.023 56.8265 373.188C56.3145 373.496 56.2343 373.942 56.5859 374.527L57.5913 376.2L59.141 375.269Z" fill="white"/>
<path d="M58.585 364.733C58.7703 365.081 58.8867 365.346 58.9341 365.526L57.5921 366.239C57.5007 366.022 57.4275 365.862 57.3724 365.758C57.2172 365.466 57.0078 365.3 56.7443 365.258C56.4715 365.222 56.0901 365.334 55.6004 365.595L51.108 367.984L48.0508 362.234L55.1143 358.478L55.9406 360.032L50.2615 363.052L51.6661 365.693L55.0143 363.913C55.8148 363.488 56.53 363.367 57.1597 363.552C57.7844 363.727 58.2595 364.121 58.585 364.733Z" fill="white"/>
<path d="M52.4351 353.008C52.94 354.091 53.0018 355.145 52.6207 356.17C52.2299 357.2 51.4883 357.969 50.3959 358.479C49.3035 358.988 48.2444 359.064 47.2186 358.707C46.1832 358.354 45.4062 357.622 44.8878 356.51C44.3649 355.389 44.3349 354.302 44.7979 353.251C45.2512 352.204 46.105 351.435 47.3591 350.944L50.0503 356.715C50.602 356.435 50.9717 356.003 51.1594 355.421C51.3471 354.84 51.2944 354.235 51.0014 353.606C50.5867 352.717 49.9643 352.265 49.1344 352.252L48.3567 350.585C49.1661 350.478 49.9445 350.633 50.6919 351.049C51.4393 351.466 52.0203 352.119 52.4351 353.008ZM46.2422 355.931C46.4856 356.453 46.8451 356.833 47.3206 357.07C47.7819 357.302 48.308 357.345 48.899 357.199L47.0259 353.183C46.5193 353.56 46.2093 353.993 46.0957 354.481C45.9725 354.974 46.0213 355.458 46.2422 355.931Z" fill="white"/>
<path d="M49.0709 345.784L41.6534 348.781L40.9941 347.149L43.9315 345.962L42.487 342.387L39.5497 343.574L38.8903 341.942L46.3078 338.945L46.9671 340.577L43.9408 341.8L45.3853 345.375L48.4116 344.152L49.0709 345.784Z" fill="white"/>
<path d="M43.8202 333.819L44.3307 335.302L36.7665 337.906L36.1935 336.242L41.2312 334.508L34.8652 332.384L34.3547 330.902L41.9189 328.297L42.4919 329.961L37.4541 331.696L43.8202 333.819Z" fill="white"/>
<path d="M40.7421 320.389C41.0714 321.538 40.9676 322.588 40.4308 323.541C39.8838 324.497 39.0309 325.141 37.8723 325.473C36.7136 325.805 35.6557 325.715 34.6984 325.201C33.7309 324.691 33.0781 323.846 32.74 322.667C32.3989 321.478 32.5393 320.4 33.1611 319.434C33.7726 318.471 34.7361 317.845 36.0516 317.556L37.8068 323.678C38.3956 323.487 38.8282 323.118 39.1046 322.573C39.381 322.028 39.4237 321.422 39.2326 320.755C38.9621 319.812 38.418 319.269 37.6003 319.126L37.0931 317.358C37.9092 317.379 38.6538 317.653 39.3268 318.182C39.9999 318.71 40.4716 319.446 40.7421 320.389ZM34.1682 322.307C34.327 322.861 34.6226 323.292 35.0551 323.601C35.4745 323.903 35.9874 324.027 36.5939 323.975L35.3723 319.715C34.8129 320.009 34.4389 320.388 34.2503 320.852C34.0515 321.32 34.0241 321.805 34.1682 322.307Z" fill="white"/>
<path d="M36.8289 308.557L29.0037 310.221L28.6378 308.499L31.7366 307.84L30.9348 304.069L27.8361 304.727L27.4701 303.006L35.2953 301.342L35.6613 303.064L32.4686 303.743L33.2703 307.514L36.463 306.836L36.8289 308.557Z" fill="white"/>
<path d="M34.6397 293.848C34.8099 294.922 34.5531 295.892 33.8692 296.756C33.1836 297.61 32.272 298.127 31.1341 298.307C29.9963 298.487 28.9695 298.277 28.0537 297.677C27.1362 297.066 26.5923 296.224 26.4221 295.149C26.337 294.612 26.3798 294.097 26.5503 293.606C26.7104 293.116 26.9397 292.724 27.2385 292.428L26.1797 292.596L25.9044 290.857L33.8059 289.606L34.0812 291.344L33.0224 291.512C33.3979 291.701 33.7427 292.003 34.0568 292.417C34.3603 292.833 34.5546 293.31 34.6397 293.848ZM32.5502 295.588C32.9648 295.069 33.1178 294.467 33.0093 293.782C32.9009 293.097 32.5693 292.572 32.0146 292.206C31.4599 291.84 30.8243 291.714 30.1079 291.828C29.3915 291.941 28.826 292.257 28.4115 292.777C27.997 293.296 27.8439 293.898 27.9524 294.583C28.0608 295.268 28.3924 295.793 28.9471 296.159C29.5018 296.524 30.1374 296.65 30.8538 296.537C31.5702 296.423 32.1357 296.107 32.5502 295.588Z" fill="white"/>
<path d="M32.0885 277.093C32.1638 277.954 32.0226 278.726 31.6649 279.411C31.2966 280.096 30.7156 280.554 29.922 280.784L29.7644 278.983C30.424 278.689 30.7152 278.102 30.6381 277.22C30.5847 276.732 30.4459 276.369 30.2217 276.132C29.9965 275.884 29.7193 275.774 29.3898 275.803C29.0498 275.833 28.8002 275.978 28.6409 276.238C28.471 276.499 28.4056 276.853 28.4446 277.299L28.5269 278.24L27.2358 278.353L27.1564 277.444C27.1238 277.072 27.0186 276.787 26.8406 276.588C26.652 276.391 26.3983 276.306 26.0795 276.334C25.7713 276.361 25.5425 276.498 25.3929 276.747C25.2327 276.997 25.1703 277.323 25.2056 277.727C25.2753 278.524 25.6431 278.995 26.309 279.14L26.4624 280.894C25.6515 280.804 25.0229 280.473 24.5768 279.902C24.1297 279.32 23.8708 278.626 23.8002 277.818C23.7174 276.872 23.8769 276.125 24.2786 275.576C24.6696 275.028 25.1786 274.726 25.8056 274.671C26.5494 274.606 27.1324 274.844 27.5545 275.385C27.8885 274.553 28.4912 274.099 29.3626 274.023C30.0214 273.965 30.6208 274.207 31.1607 274.749C31.6891 275.281 31.9983 276.062 32.0885 277.093Z" fill="white"/>
<path d="M31.2265 265.96C31.2834 267.047 30.9267 267.984 30.1562 268.772C29.3852 269.55 28.4244 269.969 27.274 270.029C26.1236 270.089 25.1243 269.773 24.2763 269.081C23.4276 268.377 22.9749 267.482 22.9179 266.396C22.8894 265.853 22.9857 265.346 23.2067 264.875C23.417 264.404 23.6862 264.038 24.0142 263.775L22.9437 263.831L22.8516 262.073L30.8406 261.655L30.9327 263.412L29.8622 263.468C30.2159 263.696 30.5273 264.032 30.7963 264.477C31.0546 264.923 31.198 265.417 31.2265 265.96ZM28.9666 267.473C29.4331 267 29.6482 266.417 29.612 265.725C29.5757 265.032 29.3008 264.475 28.7874 264.054C28.2739 263.632 27.655 263.44 26.9307 263.478C26.2064 263.516 25.6109 263.771 25.1444 264.244C24.6778 264.718 24.4627 265.3 24.499 265.993C24.5353 266.685 24.8101 267.242 25.3236 267.664C25.837 268.085 26.4559 268.277 27.1802 268.239C27.9046 268.201 28.5 267.946 28.9666 267.473Z" fill="white"/>
<path d="M31.3154 252.506L27.9074 256.058L31.3154 256.058L31.3154 257.818L23.3154 257.818L23.3154 256.058L26.7394 256.058L23.3154 252.906L23.3154 250.762L27.2514 254.394L31.3154 250.186L31.3154 252.506Z" fill="white"/>
<path d="M30.6254 244.93C30.5874 246.017 30.1503 246.92 29.3141 247.638C28.4782 248.345 27.4847 248.679 26.3334 248.639C25.1821 248.598 24.2142 248.196 23.4297 247.433C22.6456 246.658 22.2725 245.727 22.3105 244.64C22.3295 244.096 22.4695 243.599 22.7307 243.15C22.9813 242.699 23.2814 242.358 23.6311 242.124L22.5597 242.087L22.6211 240.328L30.6163 240.607L30.5548 242.366L29.4835 242.329C29.8161 242.586 30.0969 242.948 30.3261 243.415C30.5446 243.881 30.6444 244.386 30.6254 244.93ZM28.2422 246.24C28.7482 245.809 29.0133 245.247 29.0375 244.555C29.0617 243.862 28.8365 243.283 28.3617 242.818C27.887 242.353 27.2872 242.108 26.5623 242.083C25.8374 242.057 25.222 242.26 24.716 242.691C24.21 243.121 23.9449 243.683 23.9207 244.376C23.8965 245.069 24.1217 245.648 24.5965 246.112C25.0712 246.577 25.671 246.822 26.3959 246.848C27.1208 246.873 27.7362 246.67 28.2422 246.24Z" fill="white"/>
<path d="M31.7249 233.838C31.6646 234.7 31.4043 235.441 30.9439 236.061C30.4729 236.68 29.8275 237.042 29.0076 237.145L29.1337 235.341C29.8311 235.154 30.2107 234.62 30.2724 233.736C30.296 233.246 30.2157 232.866 30.0314 232.597C29.8478 232.317 29.5911 232.165 29.2612 232.142C28.9207 232.118 28.6514 232.222 28.4534 232.454C28.2448 232.686 28.1248 233.025 28.0936 233.472L28.0277 234.414L26.7349 234.323L26.7985 233.413C26.8246 233.041 26.7652 232.743 26.6205 232.519C26.4651 232.294 26.2278 232.171 25.9086 232.148C25.6 232.127 25.3524 232.227 25.1658 232.449C24.9685 232.671 24.8558 232.983 24.8275 233.388C24.7717 234.186 25.0613 234.709 25.6962 234.956L25.5734 236.712C24.7866 236.497 24.2175 236.072 23.8662 235.438C23.5156 234.793 23.3686 234.066 23.4252 233.258C23.4914 232.311 23.7658 231.597 24.2484 231.118C24.7204 230.638 25.2703 230.419 25.8981 230.463C26.643 230.515 27.1815 230.842 27.5137 231.442C27.9739 230.673 28.6402 230.318 29.5128 230.379C30.1725 230.425 30.7266 230.758 31.1752 231.378C31.6138 231.986 31.7971 232.806 31.7249 233.838Z" fill="white"/>
</svg>
