<svg width="21" height="21" viewBox="0 0 21 21" fill="none" xmlns="http://www.w3.org/2000/svg">
<path d="M19.1604 0H1.3826C1.08791 0 0.805295 0.116448 0.596921 0.323727C0.388548 0.531005 0.271484 0.812136 0.271484 1.10527V3.96793C0.271484 4.54598 0.508151 5.11409 0.919262 5.52304L6.93815 11.5103V19.8949C6.93837 20.0832 6.9869 20.2683 7.07915 20.4328C7.1714 20.5972 7.30431 20.7355 7.46531 20.8346C7.6263 20.9336 7.81005 20.9902 7.99916 20.9988C8.18826 21.0075 8.37645 20.968 8.54593 20.8841L12.9904 18.6736C13.367 18.4857 13.6048 18.1032 13.6048 17.6843V11.5103L19.6237 5.52304C20.0348 5.11409 20.2715 4.54598 20.2715 3.96793V1.10527C20.2715 0.812136 20.1544 0.531005 19.946 0.323727C19.7377 0.116448 19.4551 0 19.1604 0Z" fill="#D9FF5A"/>
</svg>
